#Comment line ignore any data following # character 
#Hierarchical Translation and Rotation (.htr) file 
[Header]	
#Header keywords are followed by a single value 
FileType HTR		#Single word string
DataType HTRS		#Translation followed by rotation and scale data
FileVersion 1		#integer
NumSegments 25		#integer
NumFrames 4		#integer
DataFrameRate 30		#integer, data frame rate in this file
EulerRotationOrder ZYX
CalibrationUnits mm
RotationUnits Degrees
GlobalAxisofGravity Y
BoneLengthAxis Y
ScaleFactor 1.00
[SegmentNames&Hierarchy]
#CHILD	PARENT
BN_Tick_Root GLOBAL
BN_Torso BN_Tick_Root
BN_L_Leg_Front01 BN_Torso
BN_L_Leg_Rear01 BN_Torso
BN_MetalTop BN_Torso
BN_Neck BN_Torso
BN_R_Leg_Front01 BN_Torso
BN_R_Leg_Rear01 BN_Torso
BN_Sack BN_Torso
BN_L_Leg_Front02 BN_L_Leg_Front01
BN_L_Leg_Front03 BN_L_Leg_Front02
BN_L_Leg_Rear02 BN_L_Leg_Rear01
BN_L_Leg_Rear03 BN_L_Leg_Rear02
BN_Head BN_Neck
BN_Needle BN_Head
BN_R_Leg_Front02 BN_R_Leg_Front01
BN_R_Leg_Front03 BN_R_Leg_Front02
BN_R_Leg_Rear02 BN_R_Leg_Rear01
BN_R_Leg_Rear03 BN_R_Leg_Rear02
BN_SackDef01 BN_Sack
BN_SackDef02 BN_Sack
BN_SackDef03 BN_Sack
BN_SackDef04 BN_Sack
BN_SackDef05 BN_Sack
BN_SackDef06 BN_Sack
[BasePosition]
#SegmentName Tx, Ty, Tz, Rx, Ry, Rz, BoneLength
BN_Tick_Root 0.000000 0.000000 0.000000 -90.000000 0.000000 0.000000 10.000000 
BN_Torso 0.000000 0.000000 0.000000 0.000000 0.000000 0.000000 10.000000 
BN_L_Leg_Front01 0.000000 0.000000 0.000000 0.000000 0.000000 0.000000 10.000000 
BN_L_Leg_Rear01 0.000000 0.000000 0.000000 0.000000 0.000000 0.000000 10.000000 
BN_MetalTop 0.000000 0.000000 0.000000 0.000000 0.000000 0.000000 10.000000 
BN_Neck 0.000000 0.000000 0.000000 0.000000 0.000000 0.000000 10.000000 
BN_R_Leg_Front01 0.000000 0.000000 0.000000 0.000000 0.000000 0.000000 10.000000 
BN_R_Leg_Rear01 0.000000 0.000000 0.000000 0.000000 0.000000 0.000000 10.000000 
BN_Sack 0.000000 0.000000 0.000000 0.000000 0.000000 0.000000 10.000000 
BN_L_Leg_Front02 0.000000 0.000000 0.000000 0.000000 0.000000 0.000000 10.000000 
BN_L_Leg_Front03 0.000000 0.000000 0.000000 0.000000 0.000000 0.000000 10.000000 
BN_L_Leg_Rear02 0.000000 0.000000 0.000000 0.000000 0.000000 0.000000 10.000000 
BN_L_Leg_Rear03 0.000000 0.000000 0.000000 0.000000 0.000000 0.000000 10.000000 
BN_Head 0.000000 0.000000 0.000000 0.000000 0.000000 0.000000 10.000000 
BN_Needle 0.000000 0.000000 0.000000 0.000000 0.000000 0.000000 10.000000 
BN_R_Leg_Front02 0.000000 0.000000 0.000000 0.000000 0.000000 0.000000 10.000000 
BN_R_Leg_Front03 0.000000 0.000000 0.000000 0.000000 0.000000 0.000000 10.000000 
BN_R_Leg_Rear02 0.000000 0.000000 0.000000 0.000000 0.000000 0.000000 10.000000 
BN_R_Leg_Rear03 0.000000 0.000000 0.000000 0.000000 0.000000 0.000000 10.000000 
BN_SackDef01 0.000000 0.000000 0.000000 0.000000 0.000000 0.000000 10.000000 
BN_SackDef02 0.000000 0.000000 0.000000 0.000000 0.000000 0.000000 10.000000 
BN_SackDef03 0.000000 0.000000 0.000000 0.000000 0.000000 0.000000 10.000000 
BN_SackDef04 0.000000 0.000000 0.000000 0.000000 0.000000 0.000000 10.000000 
BN_SackDef05 0.000000 0.000000 0.000000 0.000000 0.000000 0.000000 10.000000 
BN_SackDef06 0.000000 0.000000 0.000000 0.000000 0.000000 0.000000 10.000000 
#Beginning of Data. Separated by tabs
#Fr	Tx	Ty	Tz	Rx	Ry	Rz	SF
[BN_Tick_Root]
46 0.000000 0.000000 0.000000 0.000000 0.000000 -0.000020 0.000000
47 0.000000 0.000000 0.000000 0.000000 0.000000 -0.000020 0.000000
48 0.000000 0.000000 0.000000 0.000000 0.000000 -0.000020 0.000000
49 0.000000 0.000000 0.000000 0.000000 0.000000 -0.000020 0.000000
[BN_Torso]
46 3.095392 20.697643 212.099838 -13.769311 -1.814146 -2.245659 213.129807
47 3.095392 20.697643 212.099838 -13.769312 -1.814147 -2.245672 213.129807
48 3.095392 20.697645 212.099838 -13.934269 -1.909842 -3.929364 213.129807
49 3.095393 20.697645 212.099838 -14.096391 -2.010362 -5.613251 213.129807
[BN_L_Leg_Front01]
46 -68.477791 10.734189 -26.804373 -63.424454 52.382179 138.575150 74.316254
47 -68.477791 10.734189 -26.804373 -63.424454 52.382187 138.575165 74.316254
48 -68.477791 10.734189 -26.804373 -64.201057 52.732849 140.124466 74.316254
49 -68.477791 10.734189 -26.804373 -64.968285 53.096287 141.679077 74.316254
[BN_L_Leg_Rear01]
46 -72.133743 -73.994843 -18.268616 39.550571 63.106468 -148.768768 104.939293
47 -72.133743 -73.994843 -18.268616 39.550579 63.106495 -148.768768 104.939293
48 -72.133743 -73.994843 -18.268616 39.781536 63.567970 -146.184586 104.939293
49 -72.133743 -73.994843 -18.268616 40.063652 64.024452 -143.552628 104.939293
[BN_MetalTop]
46 0.000008 13.737477 26.403606 92.251366 -17.585709 -97.417938 29.763546
47 0.000008 13.737477 26.403606 92.251366 -17.585709 -97.417938 29.763546
48 0.000008 13.737477 26.403606 92.251366 -17.585709 -97.417938 29.763546
49 0.000008 13.737477 26.403606 92.251366 -17.585709 -97.417938 29.763546
[BN_Neck]
46 0.000014 95.233284 10.002091 -89.999672 -65.297531 89.999657 95.757088
47 0.000014 95.233284 10.002091 -89.999672 -65.297531 89.999657 95.757088
48 0.000014 95.233284 10.002091 -89.999672 -65.297531 89.999657 95.757088
49 0.000014 95.233284 10.002091 -89.999672 -65.297531 89.999657 95.757088
[BN_R_Leg_Front01]
46 68.477768 10.734107 -26.804314 65.109238 45.298759 52.355427 74.316193
47 68.477768 10.734107 -26.804314 65.109245 45.298763 52.355450 74.316193
48 68.477768 10.734107 -26.804314 64.883202 44.686813 54.143391 74.316193
49 68.477768 10.734107 -26.804314 64.632957 44.079914 55.916737 74.316193
[BN_R_Leg_Rear01]
46 72.133751 -73.994873 -18.268644 25.557642 75.359047 55.518635 104.939331
47 72.133751 -73.994873 -18.268644 25.557657 75.359062 55.518677 104.939331
48 72.133751 -73.994873 -18.268644 23.176828 74.684837 56.739155 104.939331
49 72.133751 -73.994873 -18.268644 20.839008 74.023491 58.011917 104.939331
[BN_Sack]
46 -0.000000 -78.024918 33.657791 91.379875 -11.014523 -97.199577 84.974907
47 -0.000000 -78.024918 33.657791 91.379875 -11.014523 -97.199577 84.974907
48 -0.000000 -78.024918 33.657791 91.379875 -11.014523 -97.199577 84.974907
49 -0.000000 -78.024918 33.657791 91.379875 -11.014523 -97.199577 84.974907
[BN_L_Leg_Front02]
46 142.805023 -0.000015 -0.000104 -0.062951 0.811215 -141.731262 142.805023
47 142.805023 -0.000015 -0.000104 -0.062569 0.810429 -141.731262 142.805023
48 142.805023 -0.000015 -0.000104 -0.068403 0.815853 -142.340393 142.805023
49 142.805023 -0.000015 -0.000104 -0.074293 0.821214 -142.949524 142.805023
[BN_L_Leg_Front03]
46 124.143021 -0.000045 0.000007 0.351836 -0.270829 143.382584 124.143021
47 124.143021 -0.000045 0.000007 0.351836 -0.270829 143.382584 124.143021
48 124.143021 -0.000045 0.000007 0.353089 -0.267784 143.744949 124.143021
49 124.143021 -0.000045 0.000007 0.354360 -0.264747 144.107315 124.143021
[BN_L_Leg_Rear02]
46 139.939041 0.000075 -0.000022 0.065222 -0.226141 99.008614 139.939041
47 139.939041 0.000075 -0.000022 0.065222 -0.226141 99.008614 139.939041
48 139.939041 0.000075 -0.000022 0.066828 -0.227239 98.738976 139.939041
49 139.939041 0.000075 -0.000022 0.068439 -0.228330 98.469337 139.939041
[BN_L_Leg_Rear03]
46 142.839615 0.000179 -0.000060 0.000571 -0.002277 -118.137085 142.839615
47 142.839615 0.000179 -0.000060 0.000571 -0.002277 -118.137085 142.839615
48 142.839615 0.000179 -0.000060 0.000565 -0.002278 -117.846214 142.839615
49 142.839615 0.000179 -0.000060 0.000559 -0.002280 -117.555328 142.839615
[BN_Head]
46 57.062447 -0.000030 0.000000 -11.987980 17.517984 0.175585 57.062447
47 57.062447 -0.000030 0.000000 -11.987968 17.517975 0.175586 57.062447
48 57.062447 -0.000030 0.000000 -10.554753 16.536842 0.374461 57.062447
49 57.062447 -0.000030 0.000000 -9.131817 15.551052 0.546858 57.062447
[BN_Needle]
46 33.915161 69.677544 -0.000060 0.000003 0.000030 87.896805 77.493217
47 33.915161 69.677544 -0.000060 0.000003 0.000030 87.896805 77.493217
48 33.915161 69.677544 -0.000060 0.000003 0.000030 87.896805 77.493217
49 33.915161 69.677544 -0.000060 0.000003 0.000030 87.896805 77.493217
[BN_R_Leg_Front02]
46 142.804947 -0.000060 0.000060 -0.107490 0.533009 115.267616 142.804947
47 142.804947 -0.000060 0.000060 -0.107490 0.533009 115.267616 142.804947
48 142.804947 -0.000060 0.000060 -0.110746 0.526439 114.590416 142.804947
49 142.804947 -0.000060 0.000060 -0.113924 0.519831 113.913200 142.804947
[BN_R_Leg_Front03]
46 124.143005 -0.000060 -0.000156 -0.354584 -0.373143 -123.751579 124.143005
47 124.143005 -0.000060 -0.000156 -0.354584 -0.373143 -123.751579 124.143005
48 124.143005 -0.000060 -0.000156 -0.353807 -0.376503 -123.137657 124.143005
49 124.143005 -0.000060 -0.000156 -0.353066 -0.379872 -122.523705 124.143005
[BN_R_Leg_Rear02]
46 139.939011 -0.000149 0.000015 0.065189 -0.253368 -138.871384 139.939011
47 139.939011 -0.000149 0.000015 0.065189 -0.253368 -138.871384 139.939011
48 139.939011 -0.000149 0.000015 0.064644 -0.257272 -138.456757 139.939011
49 139.939011 -0.000149 0.000015 0.064072 -0.261173 -138.042114 139.939011
[BN_R_Leg_Rear03]
46 142.839417 0.000075 0.000119 0.002036 -0.001169 149.720856 142.839417
47 142.839417 0.000075 0.000119 0.002036 -0.001169 149.720856 142.839417
48 142.839417 0.000075 0.000119 0.002038 -0.001165 149.493546 142.839417
49 142.839417 0.000075 0.000119 0.002040 -0.001161 149.266220 142.839417
[BN_SackDef01]
46 249.782272 -3.760844 42.949425 -128.408218 -44.374973 -11.740845 253.475800
47 249.782272 -3.760844 42.949425 -128.408218 -44.374973 -11.740845 253.475800
48 249.782272 -3.760844 42.949425 -128.408218 -44.374973 -11.740845 253.475800
49 249.782272 -3.760844 42.949425 -128.408218 -44.374973 -11.740845 253.475800
[BN_SackDef02]
46 138.789795 -62.131748 45.674385 32.077126 -27.375721 -88.781525 158.773758
47 138.789795 -62.131748 45.674385 32.077126 -27.375721 -88.781525 158.773758
48 138.789795 -62.131748 45.674385 32.077126 -27.375721 -88.781525 158.773758
49 138.789795 -62.131748 45.674385 32.077126 -27.375721 -88.781525 158.773758
[BN_SackDef03]
46 249.782272 -3.760785 -42.949661 18.144459 44.375008 -11.740894 253.475845
47 249.782272 -3.760785 -42.949661 18.144459 44.375008 -11.740894 253.475845
48 249.782272 -3.760785 -42.949661 18.144459 44.375008 -11.740894 253.475845
49 249.782272 -3.760785 -42.949661 18.144459 44.375008 -11.740894 253.475845
[BN_SackDef04]
46 138.789780 -62.131645 -45.674473 146.059982 27.375723 -88.781555 158.773743
47 138.789780 -62.131645 -45.674473 146.059982 27.375723 -88.781555 158.773743
48 138.789780 -62.131645 -45.674473 146.059982 27.375723 -88.781555 158.773743
49 138.789780 -62.131645 -45.674473 146.059982 27.375723 -88.781555 158.773743
[BN_SackDef05]
46 118.790161 46.167137 -63.831196 0.155741 51.314110 90.605110 142.537460
47 118.790161 46.167137 -63.831196 0.155741 51.314110 90.605110 142.537460
48 118.790161 46.167137 -63.831196 0.155741 51.314110 90.605110 142.537460
49 118.790161 46.167137 -63.831196 0.155741 51.314110 90.605110 142.537460
[BN_SackDef06]
46 118.790207 46.167194 63.831219 152.058487 -51.314072 90.605019 142.537537
47 118.790207 46.167194 63.831219 152.058487 -51.314072 90.605019 142.537537
48 118.790207 46.167194 63.831219 152.058487 -51.314072 90.605019 142.537537
49 118.790207 46.167194 63.831219 152.058487 -51.314072 90.605019 142.537537
